<svg width="900" height="900" viewBox="0 0 900 900" xmlns="http://www.w3.org/2000/svg">

  <!-- Background -->
  <rect width="900" height="900" fill="white"/>

  <!-- Title -->
  <text x="450" y="60" font-family="Arial" font-size="32" text-anchor="middle">
    Inverted Star — Flowchart (v1.0)
  </text>

  <!-- Phase node style -->
  <style>
    .phase { font-family: Arial; font-size: 20px; text-anchor: middle; dominant-baseline: middle; }
    .label { font-family: Arial; font-size: 18px; text-anchor: middle; }
  </style>

  <!-- Coordinates for the 7 phases arranged in a cycle -->
  <!-- Rise -->
  <circle cx="450" cy="150" r="28" fill="#4A90E2"/>
  <text x="450" y="150" class="phase" fill="white">Rise</text>

  <!-- Saturation -->
  <circle cx="650" cy="260" r="28" fill="#417505"/>
  <text x="650" y="260" class="phase" fill="white">Sat</text>

  <!-- Fracture -->
  <circle cx="750" cy="450" r="28" fill="#D0021B"/>
  <text x="750" y="450" class="phase" fill="white">Frac</text>

  <!-- Inversion -->
  <circle cx="650" cy="640" r="28" fill="#9013FE"/>
  <text x="650" y="640" class="phase" fill="white">Inv</text>

  <!-- Collapse -->
  <circle cx="450" cy="750" r="28" fill="#8B572A"/>
  <text x="450" y="750" class="phase" fill="white">Col</text>

  <!-- Dissolution -->
  <circle cx="250" cy="640" r="28" fill="#7F8C8D"/>
  <text x="250" y="640" class="phase" fill="white">Dis</text>

  <!-- Silence -->
  <circle cx="150" cy="450" r="28" fill="#000"/>
  <text x="150" y="450" class="phase" fill="white">Ø</text>

  <!-- Connecting arrows -->
  <defs>
    <marker id="arrow" markerWidth="10" markerHeight="10" refX="6" refY="3" orient="auto">
      <polygon points="0 0, 6 3, 0 6" fill="#333"/>
    </marker>
  </defs>

  <!-- Arrows between phases -->
  <line x1="450" y1="178" x2="640" y2="240" stroke="#333" stroke-width="3" marker-end="url(#arrow)"/>
  <line x1="670" y1="285" x2="735" y2="430" stroke="#333" stroke-width="3" marker-end="url(#arrow)"/>
  <line x1="735" y1="470" x2="670" y2="620" stroke="#333" stroke-width="3" marker-end="url(#arrow)"/>
  <line x1="630" y1="660" x2="470" y2="735" stroke="#333" stroke-width="3" marker-end="url(#arrow)"/>
  <line x1="430" y1="735" x2="270" y2="660" stroke="#333" stroke-width="3" marker-end="url(#arrow)"/>
  <line x1="230" y1="620" x2="165" y2="470" stroke="#333" stroke-width="3" marker-end="url(#arrow)"/>
  <line x1="165" y1="430" x2="430" y2="178" stroke="#333" stroke-width="3" marker-end="url(#arrow)"/>

  <!-- Inversion singularity marker -->
  <circle cx="450" cy="450" r="40" fill="none" stroke="#9013FE" stroke-width="4"/>
  <text x="450" y="450" font-family="Arial" font-size="40" fill="#9013FE" text-anchor="middle" dominant-baseline="middle">✧</text>

  <!-- Operator dominance labels -->
  <text x="450" y="115" class="label">C (Cycle‑Rate)</text>
  <text x="700" y="230" class="label">T (Tension)</text>
  <text x="800" y="450" class="label">T↑ → 𝓘</text>
  <text x="700" y="675" class="label">𝓘 → 𝓓</text>
  <text x="450" y="790" class="label">𝓓 (Deepening)</text>
  <text x="250" y="675" class="label">𝓢 (Silence)</text>
  <text x="150" y="410" class="label">𝓢 = 1</text>

  <!-- Silence boundary -->
  <circle cx="450" cy="450" r="300" fill="none" stroke="#999" stroke-width="2" stroke-dasharray="8 8"/>

</svg>
